<svg xmlns="http://www.w3.org/2000/svg" viewBox="0 0 760 230" role="img" aria-label="8秒の旋律と伴奏の楽譜を横長の棒で表示"><rect width="760" height="230" fill="#fcfcf8"/><path d="M95 30v150" stroke="#dfe5da"/><text x="95" y="210" text-anchor="middle" font-size="13">0秒</text><path d="M173 30v150" stroke="#dfe5da"/><text x="173" y="210" text-anchor="middle" font-size="13">1秒</text><path d="M251 30v150" stroke="#dfe5da"/><text x="251" y="210" text-anchor="middle" font-size="13">2秒</text><path d="M329 30v150" stroke="#dfe5da"/><text x="329" y="210" text-anchor="middle" font-size="13">3秒</text><path d="M407 30v150" stroke="#dfe5da"/><text x="407" y="210" text-anchor="middle" font-size="13">4秒</text><path d="M485 30v150" stroke="#dfe5da"/><text x="485" y="210" text-anchor="middle" font-size="13">5秒</text><path d="M563 30v150" stroke="#dfe5da"/><text x="563" y="210" text-anchor="middle" font-size="13">6秒</text><path d="M641 30v150" stroke="#dfe5da"/><text x="641" y="210" text-anchor="middle" font-size="13">7秒</text><path d="M719 30v150" stroke="#dfe5da"/><text x="719" y="210" text-anchor="middle" font-size="13">8秒</text><text x="12" y="70" font-size="15">旋律</text><text x="12" y="163" font-size="15">伴奏</text><rect x="95" y="110" width="35" height="8" rx="3" fill="#4d7897"/><rect x="95" y="150" width="28" height="8" rx="3" fill="#ba7147"/><rect x="134" y="90" width="35" height="8" rx="3" fill="#4d7897"/><rect x="134" y="150" width="28" height="8" rx="3" fill="#ba7147"/><rect x="173" y="75" width="35" height="8" rx="3" fill="#4d7897"/><rect x="173" y="150" width="28" height="8" rx="3" fill="#ba7147"/><rect x="212" y="90" width="35" height="8" rx="3" fill="#4d7897"/><rect x="212" y="150" width="28" height="8" rx="3" fill="#ba7147"/><rect x="251" y="100" width="35" height="8" rx="3" fill="#4d7897"/><rect x="251" y="150" width="28" height="8" rx="3" fill="#ba7147"/><rect x="290" y="85" width="35" height="8" rx="3" fill="#4d7897"/><rect x="290" y="150" width="28" height="8" rx="3" fill="#ba7147"/><rect x="329" y="65" width="35" height="8" rx="3" fill="#4d7897"/><rect x="329" y="150" width="28" height="8" rx="3" fill="#ba7147"/><rect x="368" y="75" width="35" height="8" rx="3" fill="#4d7897"/><rect x="368" y="150" width="28" height="8" rx="3" fill="#ba7147"/><rect x="407" y="90" width="35" height="8" rx="3" fill="#4d7897"/><rect x="407" y="164" width="28" height="8" rx="3" fill="#ba7147"/><rect x="446" y="75" width="35" height="8" rx="3" fill="#4d7897"/><rect x="446" y="164" width="28" height="8" rx="3" fill="#ba7147"/><rect x="485" y="50" width="35" height="8" rx="3" fill="#4d7897"/><rect x="485" y="164" width="28" height="8" rx="3" fill="#ba7147"/><rect x="524" y="55" width="35" height="8" rx="3" fill="#4d7897"/><rect x="524" y="164" width="28" height="8" rx="3" fill="#ba7147"/><rect x="563" y="65" width="35" height="8" rx="3" fill="#4d7897"/><rect x="563" y="164" width="28" height="8" rx="3" fill="#ba7147"/><rect x="602" y="75" width="35" height="8" rx="3" fill="#4d7897"/><rect x="602" y="164" width="28" height="8" rx="3" fill="#ba7147"/><rect x="641" y="90" width="35" height="8" rx="3" fill="#4d7897"/><rect x="641" y="164" width="28" height="8" rx="3" fill="#ba7147"/><rect x="680" y="110" width="35" height="8" rx="3" fill="#4d7897"/><rect x="680" y="164" width="28" height="8" rx="3" fill="#ba7147"/><text x="380" y="24" text-anchor="middle" font-size="14">横：時間 ／ 棒の高さ：音の高さ</text></svg>