<svg xmlns="http://www.w3.org/2000/svg" viewBox="0 0 800 345" role="img" aria-label="説明用の数値で計算したrnn-unrollの図"><title>説明用の数値で計算したrnn-unrollの図</title><defs><marker id="arrow" viewBox="0 0 10 10" refX="9" refY="5" markerWidth="7" markerHeight="7" orient="auto-start-reverse"><path d="M0 0L10 5L0 10" fill="#738679"/></marker></defs><rect x="75" y="105" width="165" height="65" rx="9" fill="#35664d" fill-opacity=".08" stroke="#35664d" stroke-opacity=".45"/><text x="157.5" y="133.5" text-anchor="middle" fill="#35664d" font-size="16" font-family="system-ui,sans-serif">同じRNNセル</text><text x="157.5" y="157.5" text-anchor="middle" fill="#35664d" font-size="12" font-family="system-ui,sans-serif">共有 Wₓ・Wₕ</text><rect x="75" y="10" width="165" height="48" rx="9" fill="#4d7897" fill-opacity=".08" stroke="#4d7897" stroke-opacity=".45"/><text x="157.5" y="39.0" text-anchor="middle" fill="#4d7897" font-size="16" font-family="system-ui,sans-serif">入力 x1</text><rect x="75" y="230" width="165" height="48" rx="9" fill="#ba7147" fill-opacity=".08" stroke="#ba7147" stroke-opacity=".45"/><text x="157.5" y="259.0" text-anchor="middle" fill="#ba7147" font-size="16" font-family="system-ui,sans-serif">出力 y1</text><path d="M157 62 L157 98" fill="none" stroke="#738679" stroke-width="2" marker-end="url(#arrow)"/><path d="M157 174 L157 224" fill="none" stroke="#738679" stroke-width="2" marker-end="url(#arrow)"/><path d="M245 138 L307 138" fill="none" stroke="#738679" stroke-width="2" marker-end="url(#arrow)"/><text x="275" y="121" text-anchor="middle" fill="#294337" font-size="14" font-family="system-ui,sans-serif">h1</text><rect x="315" y="105" width="165" height="65" rx="9" fill="#35664d" fill-opacity=".08" stroke="#35664d" stroke-opacity=".45"/><text x="397.5" y="133.5" text-anchor="middle" fill="#35664d" font-size="16" font-family="system-ui,sans-serif">同じRNNセル</text><text x="397.5" y="157.5" text-anchor="middle" fill="#35664d" font-size="12" font-family="system-ui,sans-serif">共有 Wₓ・Wₕ</text><rect x="315" y="10" width="165" height="48" rx="9" fill="#4d7897" fill-opacity=".08" stroke="#4d7897" stroke-opacity=".45"/><text x="397.5" y="39.0" text-anchor="middle" fill="#4d7897" font-size="16" font-family="system-ui,sans-serif">入力 x2</text><rect x="315" y="230" width="165" height="48" rx="9" fill="#ba7147" fill-opacity=".08" stroke="#ba7147" stroke-opacity=".45"/><text x="397.5" y="259.0" text-anchor="middle" fill="#ba7147" font-size="16" font-family="system-ui,sans-serif">出力 y2</text><path d="M397 62 L397 98" fill="none" stroke="#738679" stroke-width="2" marker-end="url(#arrow)"/><path d="M397 174 L397 224" fill="none" stroke="#738679" stroke-width="2" marker-end="url(#arrow)"/><path d="M485 138 L547 138" fill="none" stroke="#738679" stroke-width="2" marker-end="url(#arrow)"/><text x="515" y="121" text-anchor="middle" fill="#294337" font-size="14" font-family="system-ui,sans-serif">h2</text><rect x="555" y="105" width="165" height="65" rx="9" fill="#35664d" fill-opacity=".08" stroke="#35664d" stroke-opacity=".45"/><text x="637.5" y="133.5" text-anchor="middle" fill="#35664d" font-size="16" font-family="system-ui,sans-serif">同じRNNセル</text><text x="637.5" y="157.5" text-anchor="middle" fill="#35664d" font-size="12" font-family="system-ui,sans-serif">共有 Wₓ・Wₕ</text><rect x="555" y="10" width="165" height="48" rx="9" fill="#4d7897" fill-opacity=".08" stroke="#4d7897" stroke-opacity=".45"/><text x="637.5" y="39.0" text-anchor="middle" fill="#4d7897" font-size="16" font-family="system-ui,sans-serif">入力 x3</text><rect x="555" y="230" width="165" height="48" rx="9" fill="#ba7147" fill-opacity=".08" stroke="#ba7147" stroke-opacity=".45"/><text x="637.5" y="259.0" text-anchor="middle" fill="#ba7147" font-size="16" font-family="system-ui,sans-serif">出力 y3</text><path d="M637 62 L637 98" fill="none" stroke="#738679" stroke-width="2" marker-end="url(#arrow)"/><path d="M637 174 L637 224" fill="none" stroke="#738679" stroke-width="2" marker-end="url(#arrow)"/><text x="400" y="316" text-anchor="middle" fill="#294337" font-size="14" font-family="system-ui,sans-serif">縦：各時刻の入力と出力。横：過去をまとめた状態。</text></svg>