<svg xmlns="http://www.w3.org/2000/svg" viewBox="0 0 800 350" role="img" aria-label="同じ6都市を回る2つの訪問順序と計算した総距離"><title>同じ6都市を回る2つの訪問順序と計算した総距離</title><defs><marker id="arrow" viewBox="0 0 10 10" refX="9" refY="5" markerWidth="7" markerHeight="7" orient="auto-start-reverse"><path d="M0 0L10 5L0 10" fill="#738679"/></marker></defs><path d="M70 145 L210 95" fill="none" stroke="#ba7147" stroke-width="2"/><path d="M210 95 L240 255" fill="none" stroke="#ba7147" stroke-width="2"/><path d="M240 255 L120 75" fill="none" stroke="#ba7147" stroke-width="2"/><path d="M120 75 L275 165" fill="none" stroke="#ba7147" stroke-width="2"/><path d="M275 165 L140 275" fill="none" stroke="#ba7147" stroke-width="2"/><path d="M140 275 L70 145" fill="none" stroke="#ba7147" stroke-width="2"/><circle cx="70" cy="145" r="9" fill="#4d7897"/><text x="87" y="149" text-anchor="middle" fill="#294337" font-size="12" font-family="system-ui,sans-serif">1</text><circle cx="120" cy="75" r="9" fill="#4d7897"/><text x="137" y="79" text-anchor="middle" fill="#294337" font-size="12" font-family="system-ui,sans-serif">2</text><circle cx="210" cy="95" r="9" fill="#4d7897"/><text x="227" y="99" text-anchor="middle" fill="#294337" font-size="12" font-family="system-ui,sans-serif">3</text><circle cx="275" cy="165" r="9" fill="#4d7897"/><text x="292" y="169" text-anchor="middle" fill="#294337" font-size="12" font-family="system-ui,sans-serif">4</text><circle cx="240" cy="255" r="9" fill="#4d7897"/><text x="257" y="259" text-anchor="middle" fill="#294337" font-size="12" font-family="system-ui,sans-serif">5</text><circle cx="140" cy="275" r="9" fill="#4d7897"/><text x="157" y="279" text-anchor="middle" fill="#294337" font-size="12" font-family="system-ui,sans-serif">6</text><text x="185" y="25" text-anchor="middle" fill="#294337" font-size="18" font-family="system-ui,sans-serif">訪問順序 A</text><text x="185" y="325" text-anchor="middle" fill="#294337" font-size="14" font-family="system-ui,sans-serif">総距離 1028.8 座標単位</text><path d="M465 145 L515 75" fill="none" stroke="#35664d" stroke-width="2"/><path d="M515 75 L605 95" fill="none" stroke="#35664d" stroke-width="2"/><path d="M605 95 L670 165" fill="none" stroke="#35664d" stroke-width="2"/><path d="M670 165 L635 255" fill="none" stroke="#35664d" stroke-width="2"/><path d="M635 255 L535 275" fill="none" stroke="#35664d" stroke-width="2"/><path d="M535 275 L465 145" fill="none" stroke="#35664d" stroke-width="2"/><circle cx="465" cy="145" r="9" fill="#4d7897"/><text x="482" y="149" text-anchor="middle" fill="#294337" font-size="12" font-family="system-ui,sans-serif">1</text><circle cx="515" cy="75" r="9" fill="#4d7897"/><text x="532" y="79" text-anchor="middle" fill="#294337" font-size="12" font-family="system-ui,sans-serif">2</text><circle cx="605" cy="95" r="9" fill="#4d7897"/><text x="622" y="99" text-anchor="middle" fill="#294337" font-size="12" font-family="system-ui,sans-serif">3</text><circle cx="670" cy="165" r="9" fill="#4d7897"/><text x="687" y="169" text-anchor="middle" fill="#294337" font-size="12" font-family="system-ui,sans-serif">4</text><circle cx="635" cy="255" r="9" fill="#4d7897"/><text x="652" y="259" text-anchor="middle" fill="#294337" font-size="12" font-family="system-ui,sans-serif">5</text><circle cx="535" cy="275" r="9" fill="#4d7897"/><text x="552" y="279" text-anchor="middle" fill="#294337" font-size="12" font-family="system-ui,sans-serif">6</text><text x="580" y="25" text-anchor="middle" fill="#294337" font-size="18" font-family="system-ui,sans-serif">訪問順序 B</text><text x="580" y="325" text-anchor="middle" fill="#294337" font-size="14" font-family="system-ui,sans-serif">総距離 619.9 座標単位</text></svg>