<svg xmlns="http://www.w3.org/2000/svg" viewBox="0 0 760 300" role="img" aria-labelledby="title"><title id="title">点群：位置と色を持つ点で物体を表す</title><rect width="760" height="300" rx="18" fill="#fafbf8"/><g font-family="sans-serif" fill="#263c34"><circle cx="139.3" cy="62.5" r="3.4" fill="#d67740"/><circle cx="142.0" cy="62.5" r="3.4" fill="#d67740"/><circle cx="146.9" cy="62.5" r="3.4" fill="#d67740"/><circle cx="153.5" cy="62.5" r="3.4" fill="#d67740"/><circle cx="161.4" cy="62.5" r="3.4" fill="#d67740"/><circle cx="170.0" cy="62.5" r="3.4" fill="#d67740"/><circle cx="178.6" cy="62.5" r="3.4" fill="#d67740"/><circle cx="186.5" cy="62.5" r="3.4" fill="#a24e2f"/><circle cx="193.1" cy="62.5" r="3.4" fill="#a24e2f"/><circle cx="198.0" cy="62.5" r="3.4" fill="#a24e2f"/><circle cx="200.7" cy="62.5" r="3.4" fill="#a24e2f"/><circle cx="119.9" cy="72.6" r="3.4" fill="#d67740"/><circle cx="124.3" cy="72.6" r="3.4" fill="#d67740"/><circle cx="132.2" cy="72.6" r="3.4" fill="#d67740"/><circle cx="143.0" cy="72.6" r="3.4" fill="#d67740"/><circle cx="156.0" cy="72.6" r="3.4" fill="#d67740"/><circle cx="170.0" cy="72.6" r="3.4" fill="#d67740"/><circle cx="184.0" cy="72.6" r="3.4" fill="#d67740"/><circle cx="197.0" cy="72.6" r="3.4" fill="#a24e2f"/><circle cx="207.8" cy="72.6" r="3.4" fill="#a24e2f"/><circle cx="215.7" cy="72.6" r="3.4" fill="#a24e2f"/><circle cx="220.1" cy="72.6" r="3.4" fill="#a24e2f"/><circle cx="103.4" cy="87.1" r="3.4" fill="#d67740"/><circle cx="109.2" cy="87.1" r="3.4" fill="#d67740"/><circle cx="119.7" cy="87.1" r="3.4" fill="#d67740"/><circle cx="134.2" cy="87.1" r="3.4" fill="#d67740"/><circle cx="151.4" cy="87.1" r="3.4" fill="#d67740"/><circle cx="170.0" cy="87.1" r="3.4" fill="#d67740"/><circle cx="188.6" cy="87.1" r="3.4" fill="#d67740"/><circle cx="205.8" cy="87.1" r="3.4" fill="#a24e2f"/><circle cx="220.3" cy="87.1" r="3.4" fill="#a24e2f"/><circle cx="230.8" cy="87.1" r="3.4" fill="#a24e2f"/><circle cx="236.6" cy="87.1" r="3.4" fill="#a24e2f"/><circle cx="90.9" cy="105.3" r="3.4" fill="#d67740"/><circle cx="97.8" cy="105.3" r="3.4" fill="#d67740"/><circle cx="110.3" cy="105.3" r="3.4" fill="#d67740"/><circle cx="127.4" cy="105.3" r="3.4" fill="#d67740"/><circle cx="147.9" cy="105.3" r="3.4" fill="#d67740"/><circle cx="170.0" cy="105.3" r="3.4" fill="#d67740"/><circle cx="192.1" cy="105.3" r="3.4" fill="#d67740"/><circle cx="212.6" cy="105.3" r="3.4" fill="#a24e2f"/><circle cx="229.7" cy="105.3" r="3.4" fill="#a24e2f"/><circle cx="242.2" cy="105.3" r="3.4" fill="#a24e2f"/><circle cx="249.1" cy="105.3" r="3.4" fill="#a24e2f"/><circle cx="83.0" cy="126.0" r="3.4" fill="#d67740"/><circle cx="90.6" cy="126.0" r="3.4" fill="#d67740"/><circle cx="104.4" cy="126.0" r="3.4" fill="#d67740"/><circle cx="123.2" cy="126.0" r="3.4" fill="#d67740"/><circle cx="145.7" cy="126.0" r="3.4" fill="#d67740"/><circle cx="170.0" cy="126.0" r="3.4" fill="#d67740"/><circle cx="194.3" cy="126.0" r="3.4" fill="#d67740"/><circle cx="216.8" cy="126.0" r="3.4" fill="#a24e2f"/><circle cx="235.6" cy="126.0" r="3.4" fill="#a24e2f"/><circle cx="249.4" cy="126.0" r="3.4" fill="#a24e2f"/><circle cx="257.0" cy="126.0" r="3.4" fill="#a24e2f"/><circle cx="80.4" cy="148.0" r="3.4" fill="#d67740"/><circle cx="88.2" cy="148.0" r="3.4" fill="#d67740"/><circle cx="102.4" cy="148.0" r="3.4" fill="#d67740"/><circle cx="121.8" cy="148.0" r="3.4" fill="#d67740"/><circle cx="144.9" cy="148.0" r="3.4" fill="#d67740"/><circle cx="170.0" cy="148.0" r="3.4" fill="#d67740"/><circle cx="195.1" cy="148.0" r="3.4" fill="#d67740"/><circle cx="218.2" cy="148.0" r="3.4" fill="#a24e2f"/><circle cx="237.6" cy="148.0" r="3.4" fill="#a24e2f"/><circle cx="251.8" cy="148.0" r="3.4" fill="#a24e2f"/><circle cx="259.6" cy="148.0" r="3.4" fill="#a24e2f"/><circle cx="83.0" cy="170.0" r="3.4" fill="#d67740"/><circle cx="90.6" cy="170.0" r="3.4" fill="#d67740"/><circle cx="104.4" cy="170.0" r="3.4" fill="#d67740"/><circle cx="123.2" cy="170.0" r="3.4" fill="#d67740"/><circle cx="145.7" cy="170.0" r="3.4" fill="#d67740"/><circle cx="170.0" cy="170.0" r="3.4" fill="#d67740"/><circle cx="194.3" cy="170.0" r="3.4" fill="#d67740"/><circle cx="216.8" cy="170.0" r="3.4" fill="#a24e2f"/><circle cx="235.6" cy="170.0" r="3.4" fill="#a24e2f"/><circle cx="249.4" cy="170.0" r="3.4" fill="#a24e2f"/><circle cx="257.0" cy="170.0" r="3.4" fill="#a24e2f"/><circle cx="90.9" cy="190.7" r="3.4" fill="#d67740"/><circle cx="97.8" cy="190.7" r="3.4" fill="#d67740"/><circle cx="110.3" cy="190.7" r="3.4" fill="#d67740"/><circle cx="127.4" cy="190.7" r="3.4" fill="#d67740"/><circle cx="147.9" cy="190.7" r="3.4" fill="#d67740"/><circle cx="170.0" cy="190.7" r="3.4" fill="#d67740"/><circle cx="192.1" cy="190.7" r="3.4" fill="#d67740"/><circle cx="212.6" cy="190.7" r="3.4" fill="#a24e2f"/><circle cx="229.7" cy="190.7" r="3.4" fill="#a24e2f"/><circle cx="242.2" cy="190.7" r="3.4" fill="#a24e2f"/><circle cx="249.1" cy="190.7" r="3.4" fill="#a24e2f"/><circle cx="103.4" cy="208.9" r="3.4" fill="#d67740"/><circle cx="109.2" cy="208.9" r="3.4" fill="#d67740"/><circle cx="119.7" cy="208.9" r="3.4" fill="#d67740"/><circle cx="134.2" cy="208.9" r="3.4" fill="#d67740"/><circle cx="151.4" cy="208.9" r="3.4" fill="#d67740"/><circle cx="170.0" cy="208.9" r="3.4" fill="#d67740"/><circle cx="188.6" cy="208.9" r="3.4" fill="#d67740"/><circle cx="205.8" cy="208.9" r="3.4" fill="#a24e2f"/><circle cx="220.3" cy="208.9" r="3.4" fill="#a24e2f"/><circle cx="230.8" cy="208.9" r="3.4" fill="#a24e2f"/><circle cx="236.6" cy="208.9" r="3.4" fill="#a24e2f"/><circle cx="119.9" cy="223.4" r="3.4" fill="#d67740"/><circle cx="124.3" cy="223.4" r="3.4" fill="#d67740"/><circle cx="132.2" cy="223.4" r="3.4" fill="#d67740"/><circle cx="143.0" cy="223.4" r="3.4" fill="#d67740"/><circle cx="156.0" cy="223.4" r="3.4" fill="#d67740"/><circle cx="170.0" cy="223.4" r="3.4" fill="#d67740"/><circle cx="184.0" cy="223.4" r="3.4" fill="#d67740"/><circle cx="197.0" cy="223.4" r="3.4" fill="#a24e2f"/><circle cx="207.8" cy="223.4" r="3.4" fill="#a24e2f"/><circle cx="215.7" cy="223.4" r="3.4" fill="#a24e2f"/><circle cx="220.1" cy="223.4" r="3.4" fill="#a24e2f"/><circle cx="139.3" cy="233.5" r="3.4" fill="#d67740"/><circle cx="142.0" cy="233.5" r="3.4" fill="#d67740"/><circle cx="146.9" cy="233.5" r="3.4" fill="#d67740"/><circle cx="153.5" cy="233.5" r="3.4" fill="#d67740"/><circle cx="161.4" cy="233.5" r="3.4" fill="#d67740"/><circle cx="170.0" cy="233.5" r="3.4" fill="#d67740"/><circle cx="178.6" cy="233.5" r="3.4" fill="#d67740"/><circle cx="186.5" cy="233.5" r="3.4" fill="#a24e2f"/><circle cx="193.1" cy="233.5" r="3.4" fill="#a24e2f"/><circle cx="198.0" cy="233.5" r="3.4" fill="#a24e2f"/><circle cx="200.7" cy="233.5" r="3.4" fill="#a24e2f"/><path d="M229 103 L329 79" stroke="#678376" stroke-width="2"/><circle cx="229" cy="103" r="7" fill="none" stroke="#263c34" stroke-width="2"/><text x="350" y="86" font-size="24" font-weight="bold">一つの点に、位置と色</text><text x="350" y="133" font-size="22">点をたくさん並べると、</text><text x="350" y="166" font-size="22">物体の形が浮かび上がる。</text><text x="170" y="272" text-anchor="middle" font-size="21">球を点で表した例</text></g></svg>